<svg xmlns="http://www.w3.org/2000/svg" width="56.001" height="56.001" viewBox="0 0 56.001 56.001">
    <path id="happy"
        d="M27.89,43.313c-10.063,0-14.745-8.444-14.94-8.8A2.188,2.188,0,1,1,16.8,32.428a14.1,14.1,0,0,0,2.823,3.335,12.266,12.266,0,0,0,8.269,3.175c7.484,0,11.056-6.445,11.091-6.51A2.188,2.188,0,0,1,42.83,34.51c-.194.359-4.877,8.8-14.94,8.8Zm14.6,8.652a2.187,2.187,0,1,0-2.267-3.742,23.835,23.835,0,1,1,7.4-7.111,2.187,2.187,0,1,0,3.637,2.431A27.986,27.986,0,0,0,8.2,8.2,28,28,0,0,0,42.488,51.966ZM43.2,22.75a5.469,5.469,0,1,0-10.938,0,2.188,2.188,0,1,0,4.375,0,1.094,1.094,0,0,1,2.188,0,2.188,2.188,0,1,0,4.375,0Zm-19.36,0a5.469,5.469,0,0,0-10.938,0,2.188,2.188,0,1,0,4.375,0,1.094,1.094,0,1,1,2.188,0,2.188,2.188,0,1,0,4.375,0Zm0,0"
        transform="translate(0.001)" fill="#fff" />
</svg>