<svg height="480pt" viewBox="0 0 480 480.00403" width="480pt" xmlns="http://www.w3.org/2000/svg"><path d="m472.003906 0c-112.445312-.273438-217.183594 57.097656-277.496094 152h-70.34375c-20.175781.019531-39.425781 8.488281-53.078124 23.34375l-68.976563 75.25c-2.410156 2.625-2.792969 6.527344-.9375 9.574219 1.855469 3.042969 5.5 4.492187 8.9375 3.554687l80.671875-22c2.316406-.636718 4.796875-.195312 6.75 1.199219l26.707031 19.070313-18.976562 29.703124c-2.019531 3.164063-1.566407 7.308594 1.085937 9.960938l8.152344 8.152344-54.070312 27.03125c-.34375.242187-.664063.507812-.960938.800781l-.113281-.152344c-37.207031 26.628907-59.3007815 69.558594-59.35156275 115.3125v19.199219c0 4.417969 3.58203175 8 7.99999975 8h19.199219c45.761719-.042969 88.695313-22.140625 115.328125-59.351562l-.148438-.113282c.289063-.296875.558594-.617187.796876-.957031l27.035156-54.074219 8.148437 8.152344c2.570313 2.570312 6.550781 3.085938 9.691407 1.257812l30.804687-17.976562 18.234375 25.527344c1.398438 1.957031 1.839844 4.441406 1.207031 6.761718l-22 80.671876c-.9375 3.4375.511719 7.082031 3.554688 8.9375 3.042969 1.855468 6.949219 1.472656 9.574219-.9375l75.246093-68.976563c14.855469-13.65625 23.3125-32.90625 23.328125-53.082031v-63.09375c94.480469-60.609375 151.726563-165.039063 152-277.289063v-7.457031c0-4.417969-3.582031-8-8-8zm-365.175781 229.898438c-5.867187-4.1875-13.300781-5.515626-20.253906-3.617188l-53.96875 14.71875 50.273437-54.839844c10.617188-11.558594 25.589844-18.144531 41.285156-18.160156h60.121094l-51.425781 80.496094zm-79.625 234.101562h-11.199219v-11.199219c.054688-38.210937 17.445313-74.332031 47.28125-98.207031l11.472656 11.472656c-11.933593 11.007813-18.730468 26.5-18.753906 42.734375v7.199219c0 4.417969 3.582032 8 8 8h7.199219c16.242187-.019531 31.734375-6.816406 42.746094-18.75l11.472656 11.472656c-23.875 29.835938-60.003906 47.226563-98.21875 47.277344zm58.882813-86.605469 16.527343 16.527344c-7.808593 8.734375-18.894531 13.835937-30.609375 14.078125.246094-11.714844 5.34375-22.800781 14.082032-30.605469zm47.726562 25.101563-56.304688-56.304688 16.898438-8.453125 47.839844 47.839844zm16-32-40.304688-40.304688 16.898438-8.453125 31.839844 31.839844zm162.191406-14.65625c-.015625 15.695312-6.601562 30.671875-18.160156 41.289062l-54.839844 50.273438 14.722656-53.96875c1.902344-6.957032.570313-14.398438-3.625-20.265625l-17.375-24.320313 79.277344-46.246094zm3.832032-74.335938h-.054688l-1.167969.746094c-2.03125 1.246094-4 2.597656-6.046875 3.808594l-91.480468 53.382812-31.761719 18.527344-51.640625-51.640625-11.453125-11.457031 47.621093-74.542969 35.808594-56 2.34375-3.710937c33.949219-53.34375 83.292969-95.125 141.503906-119.816407l91.601563 91.601563c-24.902344 61.71875-68.769531 113.929687-125.273437 149.101562zm131.464843-165.503906-81.503906-81.519531c31.542969-11.332031 64.699219-17.535157 98.207031-18.375-.089844 33.984375-5.730468 67.730469-16.703125 99.894531zm0 0"/><path d="m221.476562 169.234375-6.679687 10.460937 13.480469 8.609376 6.679687-10.464844c1.214844-1.886719 2.398438-3.757813 3.6875-5.597656l-13.28125-8.921876c-1.308593 1.929688-2.613281 3.878907-3.886719 5.914063zm0 0"/><path d="m153.269531 276.007812 51.285157-80.320312 13.484374 8.609375-51.28125 80.320313zm0 0"/><path d="m256.003906 160c0 35.347656 28.65625 64 64 64 35.347656 0 64-28.652344 64-64 0-35.34375-28.652344-64-64-64-35.328125.039062-63.960937 28.671875-64 64zm112 0c0 26.511719-21.488281 48-48 48-26.507812 0-48-21.488281-48-48 0-26.507812 21.492188-48 48-48 26.5.027344 47.976563 21.503906 48 48zm0 0"/><path d="m288.003906 160h16c0-8.835938 7.164063-16 16-16v-16c-17.671875 0-32 14.328125-32 32zm0 0"/><path d="m216.003906 48v-16h16v-16h-16v-16h-16v16h-16v16h16v16zm0 0"/><path d="m88.003906 72h16v16h-16zm0 0"/><path d="m464.003906 256h-16v16h-16v16h16v16h16v-16h16v-16h-16zm0 0"/><path d="m360.003906 408v16h-16v16h16v16h16v-16h16v-16h-16v-16zm0 0"/><path d="m384.003906 320h16v16h-16zm0 0"/><path d="m32.003906 120h16v16h-16zm0 0"/></svg>