<svg version="1.1" id="Capa_1" xmlns="http://www.w3.org/2000/svg" xmlns:xlink="http://www.w3.org/1999/xlink" x="0px" y="0px"
	 viewBox="0 0 512 512" style="enable-background:new 0 0 512 512;" xml:space="preserve" fill="#fff">
<g>
	<g>
		<path d="M401.067,426.667H110.933c-4.71,0-8.533,3.814-8.533,8.533v40.397c0,20.079,16.333,36.403,36.403,36.403h234.394
			c20.07,0,36.403-16.324,36.403-36.403V435.2C409.6,430.481,405.777,426.667,401.067,426.667z M392.533,475.597
			c0,10.658-8.67,19.336-19.328,19.336H138.803c-10.667,0-19.337-8.678-19.337-19.336v-31.864h273.067V475.597z"/>
	</g>
</g>
<g>
	<g>
		<path d="M281.6,460.8h-51.2c-4.71,0-8.533,3.814-8.533,8.533s3.823,8.533,8.533,8.533h51.2c4.71,0,8.533-3.814,8.533-8.533
			S286.31,460.8,281.6,460.8z"/>
	</g>
</g>
<g>
	<g>
		<path d="M358.4,460.8h-34.133c-4.71,0-8.533,3.814-8.533,8.533s3.823,8.533,8.533,8.533H358.4c4.71,0,8.533-3.814,8.533-8.533
			S363.11,460.8,358.4,460.8z"/>
	</g>
</g>
<g>
	<g>
		<path d="M187.733,460.8H153.6c-4.71,0-8.533,3.814-8.533,8.533s3.823,8.533,8.533,8.533h34.133c4.71,0,8.533-3.814,8.533-8.533
			S192.444,460.8,187.733,460.8z"/>
	</g>
</g>
<g>
	<g>
		<path d="M373.205,0H138.803C118.733,0,102.4,16.324,102.4,36.403V76.8c0,4.719,3.823,8.533,8.533,8.533h290.133
			c4.71,0,8.533-3.814,8.533-8.533V36.403C409.6,16.324,393.267,0,373.205,0z M392.533,68.267H119.467V36.403
			c0-10.658,8.67-19.337,19.337-19.337h234.394c10.667,0,19.336,8.678,19.336,19.337V68.267z"/>
	</g>
</g>
<g>
	<g>
		<path d="M298.667,34.133h-85.333c-4.71,0-8.533,3.814-8.533,8.533s3.823,8.533,8.533,8.533h85.333c4.71,0,8.533-3.814,8.533-8.533
			S303.377,34.133,298.667,34.133z"/>
	</g>
</g>
<g>
	<g>
		<path d="M230.4,119.467H8.533C3.823,119.467,0,123.281,0,128v153.6c0,4.719,3.823,8.533,8.533,8.533H230.4
			c4.71,0,8.533-3.814,8.533-8.533V128C238.933,123.281,235.11,119.467,230.4,119.467z M221.867,273.067h-204.8V136.533h204.8
			V273.067z"/>
	</g>
</g>
<g>
	<g>
		<path d="M483.627,221.867H301.44c-15.65,0-28.373,12.723-28.373,28.373v113.92c0,15.65,12.723,28.373,28.373,28.373h182.187
			c15.65,0,28.373-12.723,28.373-28.373V250.24C512,234.59,499.277,221.867,483.627,221.867z M494.933,364.16
			c0,6.229-5.069,11.307-11.307,11.307H301.44c-6.238,0-11.307-5.077-11.307-11.307V250.24c0-6.229,5.069-11.307,11.307-11.307
			h182.187c6.238,0,11.307,5.077,11.307,11.307V364.16z"/>
	</g>
</g>
<g>
	<g>
		<path d="M119.467,162.133c-23.526,0-42.667,19.14-42.667,42.667c0,23.526,19.14,42.667,42.667,42.667s42.667-19.14,42.667-42.667
			C162.133,181.274,142.993,162.133,119.467,162.133z M119.467,230.4c-14.114,0-25.6-11.486-25.6-25.6s11.486-25.6,25.6-25.6
			s25.6,11.486,25.6,25.6S133.581,230.4,119.467,230.4z"/>
	</g>
</g>
<g>
	<g>
		<path d="M59.733,119.467h-51.2C3.823,119.467,0,123.281,0,128v51.2c0,4.719,3.823,8.533,8.533,8.533
			c32.939,0,59.733-26.803,59.733-59.733C68.267,123.281,64.444,119.467,59.733,119.467z M17.067,169.805v-33.271h33.28
			C46.942,153.225,33.758,166.409,17.067,169.805z"/>
	</g>
</g>
<g>
	<g>
		<path d="M230.4,119.467h-51.2c-4.71,0-8.533,3.814-8.533,8.533c0,32.93,26.795,59.733,59.733,59.733
			c4.71,0,8.533-3.814,8.533-8.533V128C238.933,123.281,235.11,119.467,230.4,119.467z M221.867,169.805
			c-16.691-3.396-29.875-16.58-33.28-33.271h33.28V169.805z"/>
	</g>
</g>
<g>
	<g>
		<path d="M230.4,221.867c-32.939,0-59.733,26.803-59.733,59.733c0,4.719,3.823,8.533,8.533,8.533h51.2
			c4.71,0,8.533-3.814,8.533-8.533v-51.2C238.933,225.681,235.11,221.867,230.4,221.867z M221.867,273.067h-33.28
			c3.405-16.691,16.589-29.875,33.28-33.271V273.067z"/>
	</g>
</g>
<g>
	<g>
		<path d="M8.533,221.867c-4.71,0-8.533,3.814-8.533,8.533v51.2c0,4.719,3.823,8.533,8.533,8.533h51.2
			c4.71,0,8.533-3.814,8.533-8.533C68.267,248.67,41.472,221.867,8.533,221.867z M17.067,273.067v-33.271
			c16.691,3.396,29.875,16.58,33.28,33.271H17.067z"/>
	</g>
</g>
<g>
	<g>
		<path d="M483.627,221.867H301.44c-15.65,0-28.373,12.723-28.373,28.373v31.36c0,4.719,3.823,8.533,8.533,8.533h221.867
			c4.71,0,8.533-3.814,8.533-8.533v-31.36C512,234.59,499.277,221.867,483.627,221.867z M494.933,273.067h-204.8V250.24
			c0-6.229,5.069-11.307,11.307-11.307h182.187c6.238,0,11.307,5.077,11.307,11.307V273.067z"/>
	</g>
</g>
<g>
	<g>
		<path d="M349.867,332.8h-34.133c-4.71,0-8.533,3.814-8.533,8.533c0,4.719,3.823,8.533,8.533,8.533h34.133
			c4.71,0,8.533-3.814,8.533-8.533C358.4,336.614,354.577,332.8,349.867,332.8z"/>
	</g>
</g>
<g>
	<g>
		<path d="M469.333,332.8H435.2c-4.71,0-8.533,3.814-8.533,8.533c0,4.719,3.823,8.533,8.533,8.533h34.133
			c4.71,0,8.533-3.814,8.533-8.533C477.867,336.614,474.044,332.8,469.333,332.8z"/>
	</g>
</g>
<g>
	<g>
		<path d="M401.067,332.8H384c-4.71,0-8.533,3.814-8.533,8.533c0,4.719,3.823,8.533,8.533,8.533h17.067
			c4.71,0,8.533-3.814,8.533-8.533C409.6,336.614,405.777,332.8,401.067,332.8z"/>
	</g>
</g>
<g>
	<g>
		<path d="M301.44,238.933h99.627c4.71,0,8.533-3.814,8.533-8.533V76.8c0-4.719-3.823-8.533-8.533-8.533H110.933
			c-4.71,0-8.533,3.814-8.533,8.533V128c0,4.719,3.823,8.533,8.533,8.533h110.933v136.533H110.933c-4.71,0-8.533,3.814-8.533,8.533
			v153.6c0,4.719,3.823,8.533,8.533,8.533h290.133c4.71,0,8.533-3.814,8.533-8.533V384c0-4.719-3.823-8.533-8.533-8.533H301.44
			c-6.238,0-11.307-5.077-11.307-11.307V250.24C290.133,244.011,295.202,238.933,301.44,238.933z M301.44,392.533h91.093v34.133
			H119.467V290.133H230.4c4.71,0,8.533-3.814,8.533-8.533V128c0-4.719-3.823-8.533-8.533-8.533H119.467V85.333h273.067v136.533
			H301.44c-15.642,0-28.373,12.723-28.373,28.373v113.92C273.067,379.81,285.798,392.533,301.44,392.533z"/>
	</g>
</g>
<g>
	<g>
		<path d="M51.2,315.733c-4.71,0-8.533,3.814-8.533,8.533v76.8c0,4.719,3.823,8.533,8.533,8.533s8.533-3.814,8.533-8.533v-76.8
			C59.733,319.548,55.91,315.733,51.2,315.733z"/>
	</g>
</g>
<g>
	<g>
		<path d="M57.233,318.234c-3.328-3.336-8.738-3.336-12.066,0l-25.6,25.6c-3.337,3.337-3.337,8.73,0,12.066
			c1.664,1.664,3.849,2.5,6.033,2.5c2.185,0,4.369-0.836,6.033-2.5l25.6-25.6C60.57,326.963,60.57,321.57,57.233,318.234z"/>
	</g>
</g>
<g>
	<g>
		<path d="M82.833,343.834l-25.6-25.6c-3.328-3.336-8.738-3.336-12.066,0c-3.337,3.337-3.337,8.73,0,12.066l25.6,25.6
			c1.664,1.664,3.849,2.5,6.033,2.5c2.185,0,4.369-0.836,6.033-2.5C86.17,352.563,86.17,347.17,82.833,343.834z"/>
	</g>
</g>
<g>
	<g>
		<path d="M460.8,102.4c-4.71,0-8.533,3.814-8.533,8.533v76.8c0,4.719,3.823,8.533,8.533,8.533s8.533-3.814,8.533-8.533v-76.8
			C469.333,106.214,465.51,102.4,460.8,102.4z"/>
	</g>
</g>
<g>
	<g>
		<path d="M492.433,156.1c-3.328-3.337-8.738-3.337-12.066,0l-25.6,25.6c-3.337,3.337-3.337,8.73,0,12.066
			c1.664,1.664,3.849,2.5,6.033,2.5c2.185,0,4.369-0.836,6.033-2.5l25.6-25.6C495.77,164.83,495.77,159.437,492.433,156.1z"/>
	</g>
</g>
<g>
	<g>
		<path d="M466.833,181.7l-25.6-25.6c-3.328-3.337-8.738-3.337-12.066,0c-3.336,3.337-3.336,8.73,0,12.066l25.6,25.6
			c1.664,1.664,3.849,2.5,6.033,2.5c2.185,0,4.369-0.836,6.033-2.5C470.17,190.43,470.17,185.037,466.833,181.7z"/>
	</g>
</g>
</svg>
