<svg xmlns="http://www.w3.org/2000/svg" width="51.1" height="51" viewBox="0 0 51.1 51">
    <path id="rating"
        d="M8.271,31.5a2,2,0,0,0,2.769-.549,17.361,17.361,0,0,1,28.822-.035,2,2,0,0,0,3.312-2.228,21.3,21.3,0,0,0-10.5-8.174,11.278,11.278,0,1,0-14.3-.045A21.3,21.3,0,0,0,7.723,28.732,2,2,0,0,0,8.271,31.5ZM25.55,4.492a7.286,7.286,0,1,1-7.286,7.286A7.294,7.294,0,0,1,25.55,4.492Zm7.96,31.352L30.534,37.99a1.249,1.249,0,0,0-.459,1.4l1.2,3.473a1.26,1.26,0,0,1,.064.45,1.316,1.316,0,0,1-2.069.952l-2.976-2.147a1.271,1.271,0,0,0-1.485,0l-2.976,2.147a1.315,1.315,0,0,1-2.069-.952,1.279,1.279,0,0,1,.065-.45l1.2-3.473a1.249,1.249,0,0,0-.459-1.4L17.59,35.844a1.346,1.346,0,0,1,.743-2.408h3.678a1.15,1.15,0,0,0,1.2-.727l1.137-3.5a1.266,1.266,0,0,1,2.4,0l1.137,3.5a1.15,1.15,0,0,0,1.2.727h3.678A1.346,1.346,0,0,1,33.51,35.844ZM50.577,42.83,47.6,44.977a1.249,1.249,0,0,0-.459,1.4l1.2,3.473a1.259,1.259,0,0,1,.064.45,1.316,1.316,0,0,1-2.069.952l-2.976-2.147a1.271,1.271,0,0,0-1.485,0L38.9,51.255a1.315,1.315,0,0,1-2.069-.952,1.279,1.279,0,0,1,.065-.45l1.2-3.473a1.249,1.249,0,0,0-.459-1.4L34.656,42.83a1.346,1.346,0,0,1,.743-2.408h3.678a1.15,1.15,0,0,0,1.2-.727l1.137-3.5a1.266,1.266,0,0,1,2.4,0l1.137,3.5a1.15,1.15,0,0,0,1.2.727h3.678A1.346,1.346,0,0,1,50.577,42.83Zm-34.133,0-2.976,2.147a1.249,1.249,0,0,0-.459,1.4l1.2,3.473a1.259,1.259,0,0,1,.064.45,1.316,1.316,0,0,1-2.069.952L9.226,49.107a1.271,1.271,0,0,0-1.485,0L4.765,51.255A1.315,1.315,0,0,1,2.7,50.3a1.279,1.279,0,0,1,.065-.45l1.2-3.473a1.249,1.249,0,0,0-.459-1.4L.523,42.83a1.346,1.346,0,0,1,.743-2.408H4.944a1.15,1.15,0,0,0,1.2-.727l1.137-3.5a1.266,1.266,0,0,1,2.4,0l1.137,3.5a1.15,1.15,0,0,0,1.2.727H15.7A1.346,1.346,0,0,1,16.444,42.83Z"
        transform="translate(0 -0.5)" fill="#fff" />
</svg>