<svg height="480pt" viewBox="0 0 480 480" width="480pt" xmlns="http://www.w3.org/2000/svg"><path d="m184 200h112v112h-112zm0 0" fill="#78b9eb"/><path d="m40 200h112v112h-112zm0 0" fill="#78b9eb"/><path d="m328 200h112v112h-112zm0 0" fill="#78b9eb"/><path d="m40 104h400v48h-400zm0 0" fill="#78b9eb"/><path d="m456 8h-432c-8.835938 0-16 7.164062-16 16v32h464v-32c0-8.835938-7.164062-16-16-16zm0 0" fill="#78b9eb"/><g fill="#1a6fb0"><path d="m456 0h-432c-13.238281.0390625-23.9609375 10.761719-24 24v432c.0390625 13.238281 10.761719 23.960938 24 24h432c13.238281-.039062 23.960938-10.761719 24-24v-432c-.039062-13.238281-10.761719-23.9609375-24-24zm8 456c0 4.417969-3.582031 8-8 8h-432c-4.417969 0-8-3.582031-8-8v-392h448zm0-408h-448v-24c0-4.417969 3.582031-8 8-8h432c4.417969 0 8 3.582031 8 8zm0 0"/><path d="m32 24h16v16h-16zm0 0"/><path d="m72 24h16v16h-16zm0 0"/><path d="m112 24h16v16h-16zm0 0"/><path d="m296 192h-112c-4.417969 0-8 3.582031-8 8v112c0 4.417969 3.582031 8 8 8h112c4.417969 0 8-3.582031 8-8v-112c0-4.417969-3.582031-8-8-8zm-8 112h-96v-96h96zm0 0"/><path d="m152 192h-112c-4.417969 0-8 3.582031-8 8v112c0 4.417969 3.582031 8 8 8h112c4.417969 0 8-3.582031 8-8v-112c0-4.417969-3.582031-8-8-8zm-8 112h-96v-96h96zm0 0"/><path d="m440 192h-112c-4.417969 0-8 3.582031-8 8v112c0 4.417969 3.582031 8 8 8h112c4.417969 0 8-3.582031 8-8v-112c0-4.417969-3.582031-8-8-8zm-8 112h-96v-96h96zm0 0"/><path d="m184 352h112v16h-112zm0 0"/><path d="m184 384h112v16h-112zm0 0"/><path d="m184 416h112v16h-112zm0 0"/><path d="m328 352h112v16h-112zm0 0"/><path d="m328 384h112v16h-112zm0 0"/><path d="m328 416h112v16h-112zm0 0"/><path d="m40 352h112v16h-112zm0 0"/><path d="m40 384h112v16h-112zm0 0"/><path d="m40 416h112v16h-112zm0 0"/><path d="m440 96h-400c-4.417969 0-8 3.582031-8 8v48c0 4.417969 3.582031 8 8 8h400c4.417969 0 8-3.582031 8-8v-48c0-4.417969-3.582031-8-8-8zm-8 48h-384v-32h384zm0 0"/></g></svg>