<svg xmlns="http://www.w3.org/2000/svg" height="512pt" version="1.1" viewBox="0 0 512 512" width="512pt">
<g id="surface1">
<path d="M 512 256 C 512 397.386719 397.386719 512 256 512 C 114.613281 512 0 397.386719 0 256 C 0 114.613281 114.613281 0 256 0 C 397.386719 0 512 114.613281 512 256 Z M 512 256 " style=" stroke:none;fill-rule:nonzero;fill:rgb(29.019608%,47.843137%,100%);fill-opacity:1;" />
<path d="M 512 256 C 512 243.550781 511.09375 231.3125 509.375 219.335938 L 351.878906 61.839844 L 160.121094 450.160156 L 219.339844 509.375 C 231.3125 511.09375 243.550781 512 256 512 C 397.386719 512 512 397.386719 512 256 Z M 512 256 " style=" stroke:none;fill-rule:nonzero;fill:rgb(15.686275%,39.215686%,94.117647%);fill-opacity:1;" />
<path d="M 160.121094 450.160156 L 179.300781 437.785156 L 198.476562 450.160156 L 217.652344 437.785156 L 236.832031 450.160156 L 256.007812 437.785156 L 275.183594 450.160156 L 294.355469 437.785156 L 313.527344 450.160156 L 332.703125 437.785156 L 351.878906 450.160156 L 351.878906 61.839844 L 332.699219 74.214844 L 313.523438 61.839844 L 294.347656 74.214844 L 275.167969 61.839844 L 255.992188 74.214844 L 236.816406 61.839844 L 217.644531 74.214844 L 198.472656 61.839844 L 179.296875 74.214844 L 160.121094 61.839844 Z M 160.121094 450.160156 " style=" stroke:none;fill-rule:nonzero;fill:rgb(100%,100%,100%);fill-opacity:1;" />
<path d="M 332.699219 74.214844 L 313.523438 61.839844 L 294.347656 74.214844 L 275.167969 61.839844 L 255.992188 74.214844 L 255.761719 74.0625 L 255.761719 437.945312 L 256.007812 437.785156 L 275.183594 450.160156 L 294.355469 437.785156 L 313.527344 450.160156 L 332.703125 437.785156 L 351.878906 450.160156 L 351.878906 61.839844 Z M 332.699219 74.214844 " style=" stroke:none;fill-rule:nonzero;fill:rgb(91.372549%,92.941176%,96.078431%);fill-opacity:1;" />
<path d="M 230.460938 119.210938 L 173.421875 119.210938 L 173.421875 135.808594 L 193.640625 135.808594 L 193.640625 177 L 210.242188 177 L 210.242188 135.808594 L 230.460938 135.808594 Z M 230.460938 119.210938 " style=" stroke:none;fill-rule:nonzero;fill:rgb(3.529412%,80.784314%,40.392157%);fill-opacity:1;" />
<path d="M 338.578125 119.960938 L 320.703125 119.960938 L 312.613281 134.035156 L 304.527344 119.960938 L 286.648438 119.960938 L 303.035156 148.480469 L 286.648438 177 L 304.527344 177 L 312.613281 162.925781 L 320.703125 177 L 338.578125 177 L 322.191406 148.480469 Z M 338.578125 119.960938 " style=" stroke:none;fill-rule:nonzero;fill:rgb(10.196078%,67.843137%,36.078431%);fill-opacity:1;" />
<path d="M 266.640625 177 L 283.242188 177 L 267.492188 119.960938 L 242.378906 119.960938 L 226.628906 177 L 243.230469 177 L 247.234375 162.503906 L 262.640625 162.503906 Z M 283.242188 177 L 267.492188 119.960938 M 250.429688 150.921875 L 254.9375 134.605469 L 259.441406 150.921875 Z M 250.429688 150.921875 " style=" stroke:none;fill-rule:nonzero;fill:rgb(3.529412%,80.784314%,40.392157%);fill-opacity:1;" />
<path d="M 267.492188 119.960938 L 255.761719 119.960938 L 255.761719 137.597656 L 259.441406 150.921875 L 255.761719 150.921875 L 255.761719 162.503906 L 262.640625 162.503906 L 266.640625 177 L 283.242188 177 Z M 267.492188 119.960938 " style=" stroke:none;fill-rule:nonzero;fill:rgb(10.196078%,67.843137%,36.078431%);fill-opacity:1;" />
<path d="M 209.273438 375.234375 L 283.394531 301.113281 L 302.71875 320.4375 L 228.597656 394.558594 Z M 209.273438 375.234375 " style=" stroke:none;fill-rule:nonzero;fill:rgb(99.607843%,41.568627%,8.627451%);fill-opacity:1;" />
<path d="M 283.398438 301.113281 L 255.761719 328.746094 L 255.761719 367.398438 L 302.722656 320.4375 Z M 283.398438 301.113281 " style=" stroke:none;fill-rule:nonzero;fill:rgb(94.901961%,27.058824%,0%);fill-opacity:1;" />
<path d="M 244.703125 318.824219 C 244.703125 328.609375 236.773438 336.539062 226.992188 336.539062 C 217.207031 336.539062 209.277344 328.609375 209.277344 318.824219 C 209.277344 309.042969 217.207031 301.113281 226.992188 301.113281 C 236.773438 301.113281 244.703125 309.042969 244.703125 318.824219 Z M 244.703125 318.824219 " style=" stroke:none;fill-rule:nonzero;fill:rgb(99.607843%,41.568627%,8.627451%);fill-opacity:1;" />
<path d="M 302.722656 376.84375 C 302.722656 386.628906 294.792969 394.558594 285.007812 394.558594 C 275.226562 394.558594 267.296875 386.628906 267.296875 376.84375 C 267.296875 367.0625 275.226562 359.128906 285.007812 359.128906 C 294.792969 359.128906 302.722656 367.0625 302.722656 376.84375 Z M 302.722656 376.84375 " style=" stroke:none;fill-rule:nonzero;fill:rgb(94.901961%,27.058824%,0%);fill-opacity:1;" />
</g>
</svg>